<svg xmlns="http://www.w3.org/2000/svg" xmlns:xlink="http://www.w3.org/1999/xlink" width="500" zoomAndPan="magnify" viewBox="0 0 375 374.999991" height="500" preserveAspectRatio="xMidYMid meet" version="1.0"><defs><g/><clipPath id="261050e7f9"><path d="M 5.625 196.332031 L 369.375 196.332031 L 369.375 197.832031 L 5.625 197.832031 Z M 5.625 196.332031 " clip-rule="nonzero"/></clipPath></defs><rect x="-37.5" width="450" fill="#ffffff" y="-37.499999" height="449.999989" fill-opacity="1"/><rect x="-37.5" width="450" fill="#ff8400" y="-37.499999" height="449.999989" fill-opacity="1"/><g fill="#ffffff" fill-opacity="1"><g transform="translate(8.336699, 190.411072)"><g><path d="M 19.265625 0 L 14.9375 0 L 14.9375 -38.640625 L 0.71875 -38.640625 L 0.71875 -42.484375 L 33.484375 -42.484375 L 33.484375 -38.640625 L 19.265625 -38.640625 Z M 19.265625 0 "/></g></g></g><g fill="#ffffff" fill-opacity="1"><g transform="translate(47.929992, 190.411072)"><g><path d="M 18.953125 -42.484375 L 23.15625 -42.484375 L 41.40625 0 L 36.59375 0 L 31.921875 -11.15625 L 9.953125 -11.15625 L 5.34375 0 L 0.59375 0 Z M 20.9375 -37.734375 L 11.578125 -15.125 L 30.296875 -15.125 Z M 20.9375 -37.734375 "/></g></g></g><g fill="#ffffff" fill-opacity="1"><g transform="translate(95.32177, 190.411072)"><g><path d="M 5.640625 0 L 5.640625 -42.484375 L 18.125 -42.484375 C 22.601562 -42.484375 26.140625 -41.570312 28.734375 -39.75 C 31.335938 -37.925781 32.640625 -35.054688 32.640625 -31.140625 C 32.640625 -29.097656 32.164062 -27.285156 31.21875 -25.703125 C 30.28125 -24.128906 28.992188 -22.878906 27.359375 -21.953125 C 25.722656 -21.035156 23.863281 -20.457031 21.78125 -20.21875 L 34.203125 0 L 28.921875 0 L 17.15625 -19.859375 L 9.953125 -19.859375 L 9.953125 0 Z M 17.453125 -23.578125 C 20.941406 -23.578125 23.625 -24.21875 25.5 -25.5 C 27.375 -26.78125 28.3125 -28.660156 28.3125 -31.140625 C 28.3125 -36.222656 24.753906 -38.765625 17.640625 -38.765625 L 9.953125 -38.765625 L 9.953125 -23.578125 Z M 17.453125 -23.578125 "/></g></g></g><g fill="#ffffff" fill-opacity="1"><g transform="translate(136.654725, 190.411072)"><g><path d="M 19.265625 0 L 14.9375 0 L 14.9375 -38.640625 L 0.71875 -38.640625 L 0.71875 -42.484375 L 33.484375 -42.484375 L 33.484375 -38.640625 L 19.265625 -38.640625 Z M 19.265625 0 "/></g></g></g><g fill="#ffffff" fill-opacity="1"><g transform="translate(176.248018, 190.411072)"><g><path d="M 18.953125 -42.484375 L 23.15625 -42.484375 L 41.40625 0 L 36.59375 0 L 31.921875 -11.15625 L 9.953125 -11.15625 L 5.34375 0 L 0.59375 0 Z M 20.9375 -37.734375 L 11.578125 -15.125 L 30.296875 -15.125 Z M 20.9375 -37.734375 "/></g></g></g><g fill="#ffffff" fill-opacity="1"><g transform="translate(223.639785, 190.411072)"><g><path d="M 16.375 1.078125 C 13.695312 1.078125 11.164062 0.539062 8.78125 -0.53125 C 6.40625 -1.613281 4.476562 -3.175781 3 -5.21875 L 6.71875 -7.984375 C 7.71875 -6.378906 9.054688 -5.085938 10.734375 -4.109375 C 12.421875 -3.128906 14.320312 -2.640625 16.4375 -2.640625 C 17.957031 -2.640625 19.445312 -2.957031 20.90625 -3.59375 C 22.363281 -4.238281 23.550781 -5.179688 24.46875 -6.421875 C 25.394531 -7.660156 25.859375 -9.140625 25.859375 -10.859375 C 25.859375 -12.703125 25.394531 -14.191406 24.46875 -15.328125 C 23.550781 -16.472656 22.421875 -17.34375 21.078125 -17.9375 C 19.742188 -18.539062 17.878906 -19.222656 15.484375 -19.984375 C 13.203125 -20.703125 11.25 -21.488281 9.625 -22.34375 C 8.007812 -23.207031 6.679688 -24.410156 5.640625 -25.953125 C 4.597656 -27.492188 4.078125 -29.460938 4.078125 -31.859375 C 4.078125 -34.460938 4.742188 -36.644531 6.078125 -38.40625 C 7.421875 -40.164062 9.125 -41.460938 11.1875 -42.296875 C 13.25 -43.140625 15.398438 -43.5625 17.640625 -43.5625 C 20.316406 -43.5625 22.710938 -43.070312 24.828125 -42.09375 C 26.953125 -41.113281 28.554688 -39.882812 29.640625 -38.40625 L 26.21875 -35.640625 C 25.300781 -36.960938 24.101562 -38.003906 22.625 -38.765625 C 21.144531 -39.523438 19.421875 -39.90625 17.453125 -39.90625 C 15.972656 -39.90625 14.539062 -39.601562 13.15625 -39 C 11.78125 -38.394531 10.644531 -37.492188 9.75 -36.296875 C 8.851562 -35.097656 8.40625 -33.640625 8.40625 -31.921875 C 8.40625 -30.242188 8.8125 -28.882812 9.625 -27.84375 C 10.445312 -26.800781 11.445312 -26.007812 12.625 -25.46875 C 13.8125 -24.925781 15.484375 -24.296875 17.640625 -23.578125 C 20.484375 -22.660156 22.703125 -21.8125 24.296875 -21.03125 C 25.898438 -20.25 27.289062 -19.066406 28.46875 -17.484375 C 29.644531 -15.910156 30.234375 -13.800781 30.234375 -11.15625 C 30.234375 -8.476562 29.570312 -6.21875 28.25 -4.375 C 26.9375 -2.539062 25.21875 -1.171875 23.09375 -0.265625 C 20.976562 0.628906 18.738281 1.078125 16.375 1.078125 Z M 16.375 1.078125 "/></g></g></g><g fill="#ffffff" fill-opacity="1"><g transform="translate(262.87315, 190.411072)"><g><path d="M 19.265625 0 L 14.9375 0 L 14.9375 -38.640625 L 0.71875 -38.640625 L 0.71875 -42.484375 L 33.484375 -42.484375 L 33.484375 -38.640625 L 19.265625 -38.640625 Z M 19.265625 0 "/></g></g></g><g fill="#ffffff" fill-opacity="1"><g transform="translate(302.466455, 190.411072)"><g><path d="M 9.953125 0 L 5.640625 0 L 5.640625 -42.484375 L 9.953125 -42.484375 Z M 9.953125 0 "/></g></g></g><g fill="#ffffff" fill-opacity="1"><g transform="translate(323.463364, 190.411072)"><g><path d="M 25.5 1.078125 C 21.257812 1.078125 17.457031 0.117188 14.09375 -1.796875 C 10.738281 -3.722656 8.109375 -6.382812 6.203125 -9.78125 C 4.304688 -13.175781 3.359375 -16.992188 3.359375 -21.234375 C 3.359375 -25.472656 4.316406 -29.289062 6.234375 -32.6875 C 8.160156 -36.09375 10.8125 -38.753906 14.1875 -40.671875 C 17.570312 -42.597656 21.34375 -43.5625 25.5 -43.5625 C 28.625 -43.5625 31.554688 -42.953125 34.296875 -41.734375 C 37.035156 -40.515625 39.144531 -38.882812 40.625 -36.84375 L 37.015625 -34.203125 C 36.378906 -35.160156 35.5 -36.066406 34.375 -36.921875 C 33.257812 -37.785156 31.941406 -38.476562 30.421875 -39 C 28.898438 -39.519531 27.28125 -39.78125 25.5625 -39.78125 C 22 -39.78125 18.882812 -38.9375 16.21875 -37.25 C 13.5625 -35.570312 11.515625 -33.3125 10.078125 -30.46875 C 8.640625 -27.632812 7.921875 -24.554688 7.921875 -21.234375 C 7.921875 -17.921875 8.640625 -14.84375 10.078125 -12 C 11.515625 -9.15625 13.570312 -6.894531 16.25 -5.21875 C 18.9375 -3.539062 22.039062 -2.703125 25.5625 -2.703125 C 28.125 -2.703125 30.492188 -3.21875 32.671875 -4.25 C 34.847656 -5.289062 36.640625 -6.875 38.046875 -9 L 41.40625 -6.84375 C 39.882812 -4.519531 37.753906 -2.617188 35.015625 -1.140625 C 32.273438 0.335938 29.101562 1.078125 25.5 1.078125 Z M 25.5 1.078125 "/></g></g></g><g clip-path="url(#261050e7f9)"><path fill="#ffffff" d="M 5.625 196.40625 L 369.375 196.40625 L 369.375 198.074219 L 5.625 198.074219 Z M 5.625 196.40625 " fill-opacity="1" fill-rule="nonzero"/></g><g fill="#ffffff" fill-opacity="1"><g transform="translate(54.270375, 229.261127)"><g><path d="M 7.578125 -16.984375 L 9.265625 -16.984375 L 16.5625 0 L 14.640625 0 L 12.765625 -4.46875 L 3.984375 -4.46875 L 2.140625 0 L 0.234375 0 Z M 8.375 -15.09375 L 4.625 -6.046875 L 12.125 -6.046875 Z M 8.375 -15.09375 "/></g></g></g><g fill="#ffffff" fill-opacity="1"><g transform="translate(74.134142, 229.261127)"><g><path d="M 2.15625 -8.765625 C 2.15625 -9.734375 2.125 -10.5625 2.0625 -11.25 L 3.625 -11.25 C 3.6875 -10.457031 3.71875 -9.8125 3.71875 -9.3125 L 3.765625 -9.3125 C 4.085938 -9.96875 4.570312 -10.5 5.21875 -10.90625 C 5.863281 -11.3125 6.582031 -11.515625 7.375 -11.515625 C 7.800781 -11.515625 8.160156 -11.476562 8.453125 -11.40625 L 8.234375 -9.859375 C 8.140625 -9.890625 7.972656 -9.921875 7.734375 -9.953125 C 7.503906 -9.992188 7.285156 -10.015625 7.078125 -10.015625 C 6.472656 -10.015625 5.921875 -9.859375 5.421875 -9.546875 C 4.929688 -9.242188 4.535156 -8.773438 4.234375 -8.140625 C 3.941406 -7.515625 3.796875 -6.722656 3.796875 -5.765625 L 3.796875 0 L 2.15625 0 Z M 2.15625 -8.765625 "/></g></g></g><g fill="#ffffff" fill-opacity="1"><g transform="translate(85.841901, 229.261127)"><g><path d="M 5.296875 0.140625 C 4.535156 0.140625 3.863281 -0.0820312 3.28125 -0.53125 C 2.707031 -0.976562 2.421875 -1.753906 2.421875 -2.859375 L 2.421875 -9.890625 L 0.09375 -9.890625 L 0.09375 -11.25 L 2.421875 -11.25 L 2.421875 -14.40625 L 4.0625 -14.40625 L 4.0625 -11.25 L 7.21875 -11.25 L 7.21875 -9.890625 L 4.0625 -9.890625 L 4.0625 -3.3125 C 4.0625 -2.53125 4.203125 -1.988281 4.484375 -1.6875 C 4.773438 -1.394531 5.191406 -1.25 5.734375 -1.25 C 5.960938 -1.25 6.195312 -1.28125 6.4375 -1.34375 C 6.6875 -1.40625 6.925781 -1.492188 7.15625 -1.609375 L 7.21875 -0.1875 C 6.632812 0.03125 5.992188 0.140625 5.296875 0.140625 Z M 5.296875 0.140625 "/></g></g></g><g fill="#ffffff" fill-opacity="1"><g transform="translate(96.518171, 229.261127)"><g><path d="M 3 -14.40625 C 2.695312 -14.40625 2.425781 -14.515625 2.1875 -14.734375 C 1.957031 -14.960938 1.84375 -15.234375 1.84375 -15.546875 C 1.84375 -15.867188 1.957031 -16.140625 2.1875 -16.359375 C 2.425781 -16.585938 2.695312 -16.703125 3 -16.703125 C 3.300781 -16.703125 3.566406 -16.585938 3.796875 -16.359375 C 4.035156 -16.140625 4.15625 -15.867188 4.15625 -15.546875 C 4.15625 -15.234375 4.035156 -14.960938 3.796875 -14.734375 C 3.566406 -14.515625 3.300781 -14.40625 3 -14.40625 Z M 3.8125 0 L 2.1875 0 L 2.1875 -11.25 L 3.8125 -11.25 Z M 3.8125 0 "/></g></g></g><g fill="#ffffff" fill-opacity="1"><g transform="translate(105.587218, 229.261127)"><g><path d="M 5.359375 0.28125 C 4.460938 0.28125 3.617188 0.0976562 2.828125 -0.265625 C 2.046875 -0.628906 1.40625 -1.171875 0.90625 -1.890625 L 2.203125 -2.859375 C 2.503906 -2.347656 2.941406 -1.925781 3.515625 -1.59375 C 4.085938 -1.269531 4.691406 -1.109375 5.328125 -1.109375 C 6.097656 -1.109375 6.726562 -1.265625 7.21875 -1.578125 C 7.71875 -1.890625 7.96875 -2.390625 7.96875 -3.078125 C 7.96875 -3.453125 7.84375 -3.769531 7.59375 -4.03125 C 7.34375 -4.289062 6.984375 -4.507812 6.515625 -4.6875 C 6.054688 -4.875 5.4375 -5.054688 4.65625 -5.234375 C 4.082031 -5.378906 3.566406 -5.550781 3.109375 -5.75 C 2.648438 -5.945312 2.253906 -6.25 1.921875 -6.65625 C 1.597656 -7.0625 1.4375 -7.59375 1.4375 -8.25 C 1.4375 -8.976562 1.617188 -9.585938 1.984375 -10.078125 C 2.359375 -10.578125 2.847656 -10.941406 3.453125 -11.171875 C 4.066406 -11.398438 4.734375 -11.515625 5.453125 -11.515625 C 6.242188 -11.515625 7.007812 -11.332031 7.75 -10.96875 C 8.488281 -10.613281 9.035156 -10.125 9.390625 -9.5 L 8.140625 -8.5625 C 7.898438 -9.039062 7.53125 -9.425781 7.03125 -9.71875 C 6.53125 -10.007812 5.976562 -10.15625 5.375 -10.15625 C 4.71875 -10.15625 4.15625 -10.003906 3.6875 -9.703125 C 3.226562 -9.410156 3 -8.976562 3 -8.40625 C 3 -7.882812 3.207031 -7.476562 3.625 -7.1875 C 4.039062 -6.90625 4.726562 -6.671875 5.6875 -6.484375 C 7.019531 -6.210938 8 -5.8125 8.625 -5.28125 C 9.257812 -4.75 9.578125 -4.050781 9.578125 -3.1875 C 9.578125 -2.375 9.375 -1.707031 8.96875 -1.1875 C 8.570312 -0.664062 8.050781 -0.289062 7.40625 -0.0625 C 6.769531 0.164062 6.085938 0.28125 5.359375 0.28125 Z M 5.359375 0.28125 "/></g></g></g><g fill="#ffffff" fill-opacity="1"><g transform="translate(119.309993, 229.261127)"><g><path d="M 5.203125 0.28125 C 4.578125 0.28125 3.96875 0.164062 3.375 -0.0625 C 2.789062 -0.289062 2.300781 -0.660156 1.90625 -1.171875 C 1.507812 -1.679688 1.3125 -2.332031 1.3125 -3.125 C 1.3125 -4.195312 1.660156 -5.007812 2.359375 -5.5625 C 3.054688 -6.113281 3.953125 -6.472656 5.046875 -6.640625 C 6.148438 -6.804688 7.515625 -6.890625 9.140625 -6.890625 L 9.234375 -6.890625 L 9.234375 -7.25 C 9.234375 -8.207031 8.976562 -8.929688 8.46875 -9.421875 C 7.957031 -9.910156 7.210938 -10.15625 6.234375 -10.15625 C 5.597656 -10.15625 4.984375 -10.035156 4.390625 -9.796875 C 3.796875 -9.554688 3.300781 -9.234375 2.90625 -8.828125 L 1.984375 -9.90625 C 2.472656 -10.382812 3.097656 -10.769531 3.859375 -11.0625 C 4.628906 -11.363281 5.476562 -11.515625 6.40625 -11.515625 C 7.238281 -11.515625 7.984375 -11.363281 8.640625 -11.0625 C 9.296875 -10.757812 9.816406 -10.300781 10.203125 -9.6875 C 10.585938 -9.070312 10.78125 -8.320312 10.78125 -7.4375 L 10.78125 -2.515625 C 10.78125 -2.066406 10.796875 -1.609375 10.828125 -1.140625 C 10.859375 -0.679688 10.90625 -0.300781 10.96875 0 L 9.5 0 C 9.394531 -0.632812 9.34375 -1.242188 9.34375 -1.828125 L 9.28125 -1.828125 C 8.769531 -1.085938 8.191406 -0.550781 7.546875 -0.21875 C 6.898438 0.113281 6.117188 0.28125 5.203125 0.28125 Z M 5.640625 -1.0625 C 6.378906 -1.0625 7.019531 -1.226562 7.5625 -1.5625 C 8.101562 -1.894531 8.515625 -2.34375 8.796875 -2.90625 C 9.085938 -3.476562 9.234375 -4.101562 9.234375 -4.78125 L 9.234375 -5.609375 L 8.765625 -5.609375 C 7.066406 -5.609375 5.679688 -5.441406 4.609375 -5.109375 C 3.535156 -4.785156 3 -4.144531 3 -3.1875 C 3 -2.457031 3.253906 -1.921875 3.765625 -1.578125 C 4.273438 -1.234375 4.898438 -1.0625 5.640625 -1.0625 Z M 5.640625 -1.0625 "/></g></g></g><g fill="#ffffff" fill-opacity="1"><g transform="translate(135.191708, 229.261127)"><g><path d="M 2.15625 -8.765625 C 2.15625 -9.734375 2.125 -10.5625 2.0625 -11.25 L 3.625 -11.25 C 3.6875 -10.457031 3.71875 -9.8125 3.71875 -9.3125 L 3.765625 -9.3125 C 3.972656 -9.738281 4.273438 -10.113281 4.671875 -10.4375 C 5.078125 -10.769531 5.535156 -11.03125 6.046875 -11.21875 C 6.554688 -11.414062 7.078125 -11.515625 7.609375 -11.515625 C 9.003906 -11.515625 10.0625 -11.097656 10.78125 -10.265625 C 11.507812 -9.441406 11.875 -8.316406 11.875 -6.890625 L 11.875 0 L 10.25 0 L 10.25 -6.21875 C 10.25 -7.476562 10.019531 -8.445312 9.5625 -9.125 C 9.101562 -9.8125 8.316406 -10.15625 7.203125 -10.15625 C 6.585938 -10.15625 6.023438 -9.988281 5.515625 -9.65625 C 5.003906 -9.332031 4.585938 -8.84375 4.265625 -8.1875 C 3.953125 -7.53125 3.796875 -6.722656 3.796875 -5.765625 L 3.796875 0 L 2.15625 0 Z M 2.15625 -8.765625 "/></g></g></g><g fill="#ffffff" fill-opacity="1"><g transform="translate(152.200871, 229.261127)"><g/></g></g><g fill="#ffffff" fill-opacity="1"><g transform="translate(161.269924, 229.261127)"><g><path d="M 2.25 0 L 2.25 -16.984375 L 7.0625 -16.984375 C 8.832031 -16.984375 10.226562 -16.597656 11.25 -15.828125 C 12.28125 -15.066406 12.796875 -13.941406 12.796875 -12.453125 C 12.796875 -11.460938 12.554688 -10.625 12.078125 -9.9375 C 11.597656 -9.257812 10.925781 -8.75 10.0625 -8.40625 C 9.195312 -8.0625 8.179688 -7.890625 7.015625 -7.890625 L 3.984375 -7.890625 L 3.984375 0 Z M 6.90625 -9.359375 C 8.25 -9.359375 9.273438 -9.617188 9.984375 -10.140625 C 10.703125 -10.671875 11.0625 -11.441406 11.0625 -12.453125 C 11.0625 -13.472656 10.703125 -14.234375 9.984375 -14.734375 C 9.273438 -15.242188 8.25 -15.5 6.90625 -15.5 L 3.984375 -15.5 L 3.984375 -9.359375 Z M 6.90625 -9.359375 "/></g></g></g><g fill="#ffffff" fill-opacity="1"><g transform="translate(178.255107, 229.261127)"><g><path d="M 5.203125 0.28125 C 4.578125 0.28125 3.96875 0.164062 3.375 -0.0625 C 2.789062 -0.289062 2.300781 -0.660156 1.90625 -1.171875 C 1.507812 -1.679688 1.3125 -2.332031 1.3125 -3.125 C 1.3125 -4.195312 1.660156 -5.007812 2.359375 -5.5625 C 3.054688 -6.113281 3.953125 -6.472656 5.046875 -6.640625 C 6.148438 -6.804688 7.515625 -6.890625 9.140625 -6.890625 L 9.234375 -6.890625 L 9.234375 -7.25 C 9.234375 -8.207031 8.976562 -8.929688 8.46875 -9.421875 C 7.957031 -9.910156 7.210938 -10.15625 6.234375 -10.15625 C 5.597656 -10.15625 4.984375 -10.035156 4.390625 -9.796875 C 3.796875 -9.554688 3.300781 -9.234375 2.90625 -8.828125 L 1.984375 -9.90625 C 2.472656 -10.382812 3.097656 -10.769531 3.859375 -11.0625 C 4.628906 -11.363281 5.476562 -11.515625 6.40625 -11.515625 C 7.238281 -11.515625 7.984375 -11.363281 8.640625 -11.0625 C 9.296875 -10.757812 9.816406 -10.300781 10.203125 -9.6875 C 10.585938 -9.070312 10.78125 -8.320312 10.78125 -7.4375 L 10.78125 -2.515625 C 10.78125 -2.066406 10.796875 -1.609375 10.828125 -1.140625 C 10.859375 -0.679688 10.90625 -0.300781 10.96875 0 L 9.5 0 C 9.394531 -0.632812 9.34375 -1.242188 9.34375 -1.828125 L 9.28125 -1.828125 C 8.769531 -1.085938 8.191406 -0.550781 7.546875 -0.21875 C 6.898438 0.113281 6.117188 0.28125 5.203125 0.28125 Z M 5.640625 -1.0625 C 6.378906 -1.0625 7.019531 -1.226562 7.5625 -1.5625 C 8.101562 -1.894531 8.515625 -2.34375 8.796875 -2.90625 C 9.085938 -3.476562 9.234375 -4.101562 9.234375 -4.78125 L 9.234375 -5.609375 L 8.765625 -5.609375 C 7.066406 -5.609375 5.679688 -5.441406 4.609375 -5.109375 C 3.535156 -4.785156 3 -4.144531 3 -3.1875 C 3 -2.457031 3.253906 -1.921875 3.765625 -1.578125 C 4.273438 -1.234375 4.898438 -1.0625 5.640625 -1.0625 Z M 5.640625 -1.0625 "/></g></g></g><g fill="#ffffff" fill-opacity="1"><g transform="translate(194.136828, 229.261127)"><g><path d="M 5.359375 0.28125 C 4.460938 0.28125 3.617188 0.0976562 2.828125 -0.265625 C 2.046875 -0.628906 1.40625 -1.171875 0.90625 -1.890625 L 2.203125 -2.859375 C 2.503906 -2.347656 2.941406 -1.925781 3.515625 -1.59375 C 4.085938 -1.269531 4.691406 -1.109375 5.328125 -1.109375 C 6.097656 -1.109375 6.726562 -1.265625 7.21875 -1.578125 C 7.71875 -1.890625 7.96875 -2.390625 7.96875 -3.078125 C 7.96875 -3.453125 7.84375 -3.769531 7.59375 -4.03125 C 7.34375 -4.289062 6.984375 -4.507812 6.515625 -4.6875 C 6.054688 -4.875 5.4375 -5.054688 4.65625 -5.234375 C 4.082031 -5.378906 3.566406 -5.550781 3.109375 -5.75 C 2.648438 -5.945312 2.253906 -6.25 1.921875 -6.65625 C 1.597656 -7.0625 1.4375 -7.59375 1.4375 -8.25 C 1.4375 -8.976562 1.617188 -9.585938 1.984375 -10.078125 C 2.359375 -10.578125 2.847656 -10.941406 3.453125 -11.171875 C 4.066406 -11.398438 4.734375 -11.515625 5.453125 -11.515625 C 6.242188 -11.515625 7.007812 -11.332031 7.75 -10.96875 C 8.488281 -10.613281 9.035156 -10.125 9.390625 -9.5 L 8.140625 -8.5625 C 7.898438 -9.039062 7.53125 -9.425781 7.03125 -9.71875 C 6.53125 -10.007812 5.976562 -10.15625 5.375 -10.15625 C 4.71875 -10.15625 4.15625 -10.003906 3.6875 -9.703125 C 3.226562 -9.410156 3 -8.976562 3 -8.40625 C 3 -7.882812 3.207031 -7.476562 3.625 -7.1875 C 4.039062 -6.90625 4.726562 -6.671875 5.6875 -6.484375 C 7.019531 -6.210938 8 -5.8125 8.625 -5.28125 C 9.257812 -4.75 9.578125 -4.050781 9.578125 -3.1875 C 9.578125 -2.375 9.375 -1.707031 8.96875 -1.1875 C 8.570312 -0.664062 8.050781 -0.289062 7.40625 -0.0625 C 6.769531 0.164062 6.085938 0.28125 5.359375 0.28125 Z M 5.359375 0.28125 "/></g></g></g><g fill="#ffffff" fill-opacity="1"><g transform="translate(207.859609, 229.261127)"><g><path d="M 5.296875 0.140625 C 4.535156 0.140625 3.863281 -0.0820312 3.28125 -0.53125 C 2.707031 -0.976562 2.421875 -1.753906 2.421875 -2.859375 L 2.421875 -9.890625 L 0.09375 -9.890625 L 0.09375 -11.25 L 2.421875 -11.25 L 2.421875 -14.40625 L 4.0625 -14.40625 L 4.0625 -11.25 L 7.21875 -11.25 L 7.21875 -9.890625 L 4.0625 -9.890625 L 4.0625 -3.3125 C 4.0625 -2.53125 4.203125 -1.988281 4.484375 -1.6875 C 4.773438 -1.394531 5.191406 -1.25 5.734375 -1.25 C 5.960938 -1.25 6.195312 -1.28125 6.4375 -1.34375 C 6.6875 -1.40625 6.925781 -1.492188 7.15625 -1.609375 L 7.21875 -0.1875 C 6.632812 0.03125 5.992188 0.140625 5.296875 0.140625 Z M 5.296875 0.140625 "/></g></g></g><g fill="#ffffff" fill-opacity="1"><g transform="translate(218.535882, 229.261127)"><g><path d="M 2.15625 -8.765625 C 2.15625 -9.734375 2.125 -10.5625 2.0625 -11.25 L 3.625 -11.25 C 3.6875 -10.457031 3.71875 -9.8125 3.71875 -9.3125 L 3.765625 -9.3125 C 4.085938 -9.96875 4.570312 -10.5 5.21875 -10.90625 C 5.863281 -11.3125 6.582031 -11.515625 7.375 -11.515625 C 7.800781 -11.515625 8.160156 -11.476562 8.453125 -11.40625 L 8.234375 -9.859375 C 8.140625 -9.890625 7.972656 -9.921875 7.734375 -9.953125 C 7.503906 -9.992188 7.285156 -10.015625 7.078125 -10.015625 C 6.472656 -10.015625 5.921875 -9.859375 5.421875 -9.546875 C 4.929688 -9.242188 4.535156 -8.773438 4.234375 -8.140625 C 3.941406 -7.515625 3.796875 -6.722656 3.796875 -5.765625 L 3.796875 0 L 2.15625 0 Z M 2.15625 -8.765625 "/></g></g></g><g fill="#ffffff" fill-opacity="1"><g transform="translate(230.243645, 229.261127)"><g><path d="M 2.203125 5.765625 C 1.710938 5.765625 1.226562 5.710938 0.75 5.609375 L 0.90625 4.125 C 1.289062 4.25 1.691406 4.3125 2.109375 4.3125 C 2.640625 4.3125 3.066406 4.148438 3.390625 3.828125 C 3.722656 3.503906 4.015625 3.003906 4.265625 2.328125 L 5.1875 -0.03125 L 0.390625 -11.25 L 2.203125 -11.25 L 6.03125 -1.75 L 6.078125 -1.75 L 9.546875 -11.25 L 11.328125 -11.25 L 5.734375 2.90625 C 5.367188 3.84375 4.914062 4.550781 4.375 5.03125 C 3.84375 5.519531 3.117188 5.765625 2.203125 5.765625 Z M 2.203125 5.765625 "/></g></g></g><g fill="#ffffff" fill-opacity="1"><g transform="translate(245.021904, 229.261127)"><g/></g></g><g fill="#ffffff" fill-opacity="1"><g transform="translate(254.090957, 229.261127)"><g><path d="M 6.546875 0.4375 C 5.472656 0.4375 4.460938 0.222656 3.515625 -0.203125 C 2.566406 -0.640625 1.796875 -1.269531 1.203125 -2.09375 L 2.6875 -3.1875 C 3.082031 -2.550781 3.613281 -2.035156 4.28125 -1.640625 C 4.957031 -1.253906 5.722656 -1.0625 6.578125 -1.0625 C 7.179688 -1.0625 7.773438 -1.1875 8.359375 -1.4375 C 8.941406 -1.695312 9.414062 -2.070312 9.78125 -2.5625 C 10.15625 -3.0625 10.34375 -3.65625 10.34375 -4.34375 C 10.34375 -5.082031 10.15625 -5.675781 9.78125 -6.125 C 9.414062 -6.582031 8.960938 -6.929688 8.421875 -7.171875 C 7.890625 -7.410156 7.144531 -7.679688 6.1875 -7.984375 C 5.28125 -8.273438 4.5 -8.59375 3.84375 -8.9375 C 3.195312 -9.28125 2.664062 -9.757812 2.25 -10.375 C 1.832031 -10.988281 1.625 -11.78125 1.625 -12.75 C 1.625 -13.78125 1.890625 -14.648438 2.421875 -15.359375 C 2.960938 -16.066406 3.644531 -16.585938 4.46875 -16.921875 C 5.300781 -17.253906 6.164062 -17.421875 7.0625 -17.421875 C 8.125 -17.421875 9.078125 -17.222656 9.921875 -16.828125 C 10.773438 -16.441406 11.421875 -15.953125 11.859375 -15.359375 L 10.484375 -14.25 C 10.117188 -14.78125 9.640625 -15.195312 9.046875 -15.5 C 8.453125 -15.800781 7.765625 -15.953125 6.984375 -15.953125 C 6.390625 -15.953125 5.816406 -15.832031 5.265625 -15.59375 C 4.710938 -15.351562 4.253906 -14.992188 3.890625 -14.515625 C 3.535156 -14.035156 3.359375 -13.453125 3.359375 -12.765625 C 3.359375 -12.097656 3.519531 -11.554688 3.84375 -11.140625 C 4.175781 -10.722656 4.578125 -10.40625 5.046875 -10.1875 C 5.523438 -9.96875 6.195312 -9.71875 7.0625 -9.4375 C 8.195312 -9.0625 9.082031 -8.71875 9.71875 -8.40625 C 10.363281 -8.09375 10.921875 -7.617188 11.390625 -6.984375 C 11.859375 -6.359375 12.09375 -5.519531 12.09375 -4.46875 C 12.09375 -3.394531 11.828125 -2.488281 11.296875 -1.75 C 10.773438 -1.007812 10.085938 -0.457031 9.234375 -0.09375 C 8.390625 0.257812 7.492188 0.4375 6.546875 0.4375 Z M 6.546875 0.4375 "/></g></g></g><g fill="#ffffff" fill-opacity="1"><g transform="translate(270.692327, 229.261127)"><g><path d="M 2.203125 0 L 2.203125 -18.140625 L 3.84375 -18.140625 L 3.84375 -9.390625 L 3.890625 -9.390625 C 4.171875 -10.023438 4.664062 -10.535156 5.375 -10.921875 C 6.09375 -11.316406 6.851562 -11.515625 7.65625 -11.515625 C 9.050781 -11.515625 10.109375 -11.097656 10.828125 -10.265625 C 11.554688 -9.441406 11.921875 -8.316406 11.921875 -6.890625 L 11.921875 0 L 10.296875 0 L 10.296875 -6.21875 C 10.296875 -7.476562 10.066406 -8.445312 9.609375 -9.125 C 9.148438 -9.8125 8.363281 -10.15625 7.25 -10.15625 C 6.644531 -10.15625 6.082031 -9.988281 5.5625 -9.65625 C 5.050781 -9.332031 4.632812 -8.84375 4.3125 -8.1875 C 4 -7.53125 3.84375 -6.722656 3.84375 -5.765625 L 3.84375 0 Z M 2.203125 0 "/></g></g></g><g fill="#ffffff" fill-opacity="1"><g transform="translate(287.74947, 229.261127)"><g><path d="M 7.3125 0.28125 C 6.175781 0.28125 5.148438 0.0234375 4.234375 -0.484375 C 3.328125 -0.992188 2.617188 -1.695312 2.109375 -2.59375 C 1.597656 -3.488281 1.34375 -4.492188 1.34375 -5.609375 C 1.34375 -6.734375 1.597656 -7.742188 2.109375 -8.640625 C 2.617188 -9.535156 3.328125 -10.238281 4.234375 -10.75 C 5.148438 -11.257812 6.175781 -11.515625 7.3125 -11.515625 C 8.46875 -11.515625 9.5 -11.257812 10.40625 -10.75 C 11.320312 -10.238281 12.035156 -9.535156 12.546875 -8.640625 C 13.054688 -7.742188 13.3125 -6.734375 13.3125 -5.609375 C 13.3125 -4.492188 13.054688 -3.488281 12.546875 -2.59375 C 12.035156 -1.695312 11.320312 -0.992188 10.40625 -0.484375 C 9.5 0.0234375 8.46875 0.28125 7.3125 0.28125 Z M 7.3125 -1.109375 C 8.164062 -1.109375 8.914062 -1.304688 9.5625 -1.703125 C 10.207031 -2.097656 10.707031 -2.632812 11.0625 -3.3125 C 11.414062 -4 11.59375 -4.765625 11.59375 -5.609375 C 11.59375 -6.460938 11.414062 -7.234375 11.0625 -7.921875 C 10.707031 -8.609375 10.207031 -9.148438 9.5625 -9.546875 C 8.914062 -9.953125 8.164062 -10.15625 7.3125 -10.15625 C 6.46875 -10.15625 5.722656 -9.953125 5.078125 -9.546875 C 4.441406 -9.148438 3.945312 -8.609375 3.59375 -7.921875 C 3.25 -7.234375 3.078125 -6.460938 3.078125 -5.609375 C 3.078125 -4.765625 3.25 -4 3.59375 -3.3125 C 3.945312 -2.632812 4.441406 -2.097656 5.078125 -1.703125 C 5.722656 -1.304688 6.46875 -1.109375 7.3125 -1.109375 Z M 7.3125 -1.109375 "/></g></g></g><g fill="#ffffff" fill-opacity="1"><g transform="translate(305.478267, 229.261127)"><g><path d="M 2.15625 5.765625 L 2.15625 -11.25 L 3.796875 -11.25 L 3.796875 -9.28125 L 3.859375 -9.28125 C 4.304688 -9.988281 4.914062 -10.535156 5.6875 -10.921875 C 6.457031 -11.316406 7.257812 -11.515625 8.09375 -11.515625 C 9.226562 -11.515625 10.238281 -11.253906 11.125 -10.734375 C 12.007812 -10.210938 12.691406 -9.503906 13.171875 -8.609375 C 13.648438 -7.710938 13.890625 -6.710938 13.890625 -5.609375 C 13.890625 -4.503906 13.648438 -3.503906 13.171875 -2.609375 C 12.691406 -1.710938 12.007812 -1.003906 11.125 -0.484375 C 10.238281 0.0234375 9.226562 0.28125 8.09375 0.28125 C 7.269531 0.28125 6.472656 0.09375 5.703125 -0.28125 C 4.941406 -0.664062 4.328125 -1.203125 3.859375 -1.890625 L 3.796875 -1.890625 L 3.796875 5.765625 Z M 7.921875 -1.109375 C 8.796875 -1.109375 9.550781 -1.304688 10.1875 -1.703125 C 10.832031 -2.097656 11.320312 -2.632812 11.65625 -3.3125 C 12 -4 12.171875 -4.765625 12.171875 -5.609375 C 12.171875 -6.460938 12 -7.234375 11.65625 -7.921875 C 11.320312 -8.609375 10.832031 -9.148438 10.1875 -9.546875 C 9.550781 -9.953125 8.796875 -10.15625 7.921875 -10.15625 C 7.085938 -10.15625 6.34375 -9.953125 5.6875 -9.546875 C 5.03125 -9.148438 4.515625 -8.609375 4.140625 -7.921875 C 3.773438 -7.234375 3.59375 -6.460938 3.59375 -5.609375 C 3.59375 -4.765625 3.773438 -4 4.140625 -3.3125 C 4.515625 -2.625 5.03125 -2.082031 5.6875 -1.6875 C 6.34375 -1.300781 7.085938 -1.109375 7.921875 -1.109375 Z M 7.921875 -1.109375 "/></g></g></g></svg>